<?xml version="1.0" encoding="UTF-8" standalone="no"?>
<svg width="19px" height="19px" viewBox="0 0 19 19" version="1.1" xmlns="http://www.w3.org/2000/svg" xmlns:xlink="http://www.w3.org/1999/xlink">
    <!-- Generator: Sketch 49.1 (51147) - http://www.bohemiancoding.com/sketch -->
    <title>Shape</title>
    <desc>Created with Sketch.</desc>
    <defs></defs>
    <g id="overview" stroke="none" stroke-width="1" fill="none" fill-rule="evenodd">
        <g id="button" transform="translate(-504.000000, -880.000000)" fill="#09263D" fill-rule="nonzero">
            <g id="Group-7-Copy" transform="translate(100.000000, 637.000000)">
                <g id="Group-6-Copy-26" transform="translate(199.000000, 209.000000)">
                    <g id="Group" transform="translate(190.000000, 0.000000)">
                        <g id="Group-5" transform="translate(1.000000, 21.000000)">
                            <path d="M33,24.4369141 C33,23.9210938 32.8181641,23.4238281 32.4878906,23.0230469 C32.7068359,22.6742188 32.8255859,22.2771484 32.8255859,21.8615234 C32.8292969,21.2863281 32.5992187,20.7371094 32.1835938,20.3214844 C31.753125,19.8873047 31.159375,19.6386719 30.5582031,19.6386719 L26.8955078,19.6386719 C26.7804687,19.6386719 26.6914062,19.5347656 26.7099609,19.4197266 L26.8992188,18.1914062 C26.9363281,17.9576172 26.9548828,17.7164062 26.9548828,17.4789062 C26.9548828,15.6308594 25.6746094,13.4785156 24.0195312,13.4785156 C23.5222656,13.4785156 23.0361328,13.6529297 22.6576172,13.9720703 C22.4943359,14.109375 22.4089844,14.3134766 22.4238281,14.525 L22.6279297,17.1931641 C22.6353516,17.2933594 22.6279297,17.3861328 22.6056641,17.4751953 C22.5833984,17.5679687 22.5462891,17.6570312 22.490625,17.7498047 L20.9691406,20.5701172 L20.3753906,21.6685547 C20.175,21.4162109 19.8707031,21.2640625 19.5367187,21.2640625 L15.06875,21.2640625 C14.4787109,21.2677734 14,21.7427734 14,22.3328125 L14,30.7529297 C14,31.3429687 14.4787109,31.8179687 15.06875,31.8179687 L19.5292969,31.8179687 C20.0414063,31.8179687 20.4681641,31.4542969 20.5720703,30.9755859 C20.5832031,30.9273437 20.5943359,30.8791016 20.5980469,30.8308594 C21.3996094,31.2984375 22.2382812,31.3021484 22.2753906,31.3021484 L29.0144531,31.2947266 C30.1833984,31.2316406 31.1,30.2667969 31.1,29.0941406 C31.1,28.9902344 31.0925781,28.8863281 31.0777344,28.7861328 C31.7865234,28.4001953 32.2207031,27.6654297 32.2207031,26.8527344 C32.2207031,26.6300781 32.1873047,26.4111328 32.1205078,26.1996094 C32.6734375,25.7876953 33,25.1345703 33,24.4369141 Z M31.0628906,25.2978516 L30.4023438,25.5019531 L30.1833984,25.56875 L30.1759766,25.5724609 L30.7326172,26.3183594 C30.8513672,26.4742188 30.9144531,26.6597656 30.9144531,26.8564453 C30.9144531,27.2980469 30.5990234,27.6691406 30.1648438,27.7433594 L29.4894531,27.8546875 L29.2816406,27.8880859 L29.2742188,27.8880859 L29.6861328,28.6859375 C29.7566406,28.8195313 29.7900391,28.9568359 29.7900391,29.0978516 C29.7900391,29.5691406 29.4263672,29.9625 28.9662109,29.9958984 L22.2753906,29.9996094 C22.2679688,29.9996094 21.5369141,29.9810547 21.0173828,29.5394531 C20.8726563,29.4207031 20.7427734,29.3316406 20.5980469,29.2648438 L20.5980469,23.3644531 L21.1509766,22.8857422 C21.2177734,22.8263672 21.2734375,22.7595703 21.3142578,22.6816406 L23.6150391,18.4177734 C23.7300781,18.2248047 23.8191406,18.0132813 23.8710938,17.7943359 C23.9267578,17.5791016 23.9453125,17.3453125 23.9267578,17.1041016 L23.7560547,14.8367188 C23.8414063,14.8070313 23.9267578,14.7958984 24.0158203,14.7958984 C24.8544922,14.7958984 25.6412109,16.3136719 25.6412109,17.4863281 C25.6412109,17.6607422 25.6263672,17.8314453 25.6003906,17.9984375 L25.1958984,20.6294922 C25.1699219,20.8001953 25.3035156,20.9560547 25.4742188,20.9560547 L30.5544922,20.9560547 C30.8142578,20.9560547 31.0666016,21.0636719 31.2558594,21.2492188 C31.4265625,21.4199219 31.5193359,21.6388672 31.515625,21.8615234 C31.515625,22.1398438 31.3857422,22.3958984 31.159375,22.5703125 L30.5990234,22.9970703 L30.3689453,23.1677734 L30.3726563,23.1677734 L30.3689453,23.1714844 L31.1964844,23.6390625 C31.4636719,23.7912109 31.6603516,24.0546875 31.6900391,24.3589844 C31.7271484,24.7820313 31.4673828,25.1716797 31.0628906,25.2978516 Z M19.2917969,30.4708984 L19.2917969,30.5117188 L15.30625,30.5117188 L15.30625,22.5740234 L19.2917969,22.5740234 L19.2917969,30.4708984 Z" id="Shape"></path>
                        </g>
                    </g>
                </g>
            </g>
        </g>
    </g>
</svg>