<?xml version="1.0" encoding="UTF-8" standalone="no"?>
<svg width="18px" height="15px" viewBox="0 0 18 15" version="1.1" xmlns="http://www.w3.org/2000/svg" xmlns:xlink="http://www.w3.org/1999/xlink">
    <!-- Generator: Sketch 49.1 (51147) - http://www.bohemiancoding.com/sketch -->
    <title>facebook_simple</title>
    <desc>Created with Sketch.</desc>
    <defs></defs>
    <g id="Symbols" stroke="none" stroke-width="1" fill="none" fill-rule="evenodd">
        <g id="button_icon_twitter" transform="translate(-24.000000, -17.000000)" fill="#09263D" fill-rule="nonzero">
            <g id="Group">
                <g id="facebook_simple" transform="translate(24.000000, 17.000000)">
                    <g id="icon_sns_twitter">
                        <path d="M18,1.74132027 C17.3299492,2.0458888 16.5989848,2.22862992 15.8680203,2.32000048 C16.6294416,1.86314769 17.2385787,1.13218322 17.5126904,0.279391341 C16.7817259,0.70578728 15.9898477,1.01035581 15.1675127,1.16264007 C13.7664975,-0.329745715 11.4213198,-0.390659421 9.95939086,1.01035581 C9.01522843,1.92406139 8.58883249,3.26416291 8.89340102,4.54335073 C5.90862944,4.39106647 3.16751269,2.99005124 1.27918782,0.675330427 C0.304568528,2.35045733 0.791878173,4.51289388 2.40609137,5.60934058 C1.82741117,5.57888373 1.24873096,5.42659946 0.730964467,5.15248779 L0.730964467,5.18294464 C0.730964467,6.9494421 1.97969543,8.44182789 3.68527919,8.80731012 C3.13705584,8.95959439 2.55837563,8.99005124 2.01015228,8.86822383 C2.49746193,10.3606096 3.8680203,11.3961426 5.45177665,11.4265995 C4.14213198,12.4621325 2.52791878,13.0103558 0.883248731,13.0103558 C0.578680203,13.0103558 0.274111675,13.0103558 0,12.979899 C1.70558376,14.0458888 3.68527919,14.624569 5.69543147,14.624569 C12.4568528,14.624569 16.1725888,8.99005124 16.1725888,4.11695479 C16.1725888,3.96467053 16.1725888,3.81238626 16.1725888,3.62964515 C16.9035533,3.11187865 17.5126904,2.47228474 18,1.74132027 Z" id="シェイプ_4"></path>
                    </g>
                </g>
            </g>
        </g>
    </g>
</svg>