<?xml version="1.0" encoding="UTF-8" standalone="no"?>
<svg width="26px" height="10px" viewBox="0 0 26 10" version="1.1" xmlns="http://www.w3.org/2000/svg" xmlns:xlink="http://www.w3.org/1999/xlink">
    <!-- Generator: Sketch 49.1 (51147) - http://www.bohemiancoding.com/sketch -->
    <title>icon_sns_line</title>
    <desc>Created with Sketch.</desc>
    <defs></defs>
    <g id="Symbols" stroke="none" stroke-width="1" fill="none" fill-rule="evenodd">
        <g id="button_icon_line_simple" transform="translate(-12.000000, -19.000000)" fill="#09263D" fill-rule="nonzero">
            <g id="Group">
                <g id="Group-12">
                    <g id="icon_sns_line" transform="translate(12.000000, 19.000000)">
                        <g id="Group-11">
                            <path d="M5.58802954,8.94171779 C5.40614069,9.09168371 5.1838321,9.16666667 4.9008939,9.16666667 L1.0711232,9.16666667 C0.717450447,9.16666667 0.454722114,9.07293797 0.272833269,8.89485344 C0.0909444229,8.70739605 0,8.39809134 0,7.96693933 L0,1.02164281 C0,0.712338105 0.080839487,0.46864349 0.252623397,0.281186094 C0.424407307,0.093728698 0.646715896,0 0.919549164,0 C1.20248737,0 1.42479596,0.093728698 1.59657987,0.281186094 C1.75825884,0.46864349 1.83909833,0.721710975 1.83909833,1.02164281 L1.83909833,7.43268575 L4.91099883,7.43268575 C5.1838321,7.43268575 5.41624563,7.50766871 5.59813447,7.65763463 C5.78002332,7.80760055 5.87096774,8.02317655 5.87096774,8.29498978 C5.86086281,8.57617587 5.76991838,8.79175187 5.58802954,8.94171779 Z" id="Shape"></path>
                            <path d="M8.38709677,8.90452261 C8.38709677,9.2361809 8.31336406,9.49748744 8.16589862,9.69849246 C8.01843318,9.89949749 7.8156682,10 7.5483871,10 C7.29953917,10 7.09677419,9.89949749 6.94009217,9.69849246 C6.78341014,9.49748744 6.70967742,9.2361809 6.70967742,8.90452261 L6.70967742,1.09547739 C6.70967742,0.763819095 6.78341014,0.502512563 6.94009217,0.301507538 C7.09677419,0.100502513 7.29953917,0 7.5483871,0 C7.80645161,0 8.00921659,0.100502513 8.16589862,0.301507538 C8.31336406,0.502512563 8.38709677,0.773869347 8.38709677,1.09547739 L8.38709677,8.90452261 Z" id="Shape"></path>
                            <path d="M18.4408755,8.63316583 C18.4408755,9.08542714 18.3549764,9.41708543 18.1724407,9.64824121 C17.989905,9.87939698 17.6999954,10 17.2919745,10 C16.9913275,10 16.7658422,9.95979899 16.6262561,9.87939698 C16.48667,9.79899497 16.3470839,9.64824121 16.2182352,9.40703518 L12.8252191,3.37688442 L12.7930069,3.37688442 L12.7930069,8.94472362 C12.7930069,9.64824121 12.4816225,10 11.8481164,10 C11.2253476,10 10.9032258,9.64824121 10.9032258,8.94472362 L10.9032258,1.28643216 C10.9032258,0.834170854 10.9998623,0.502512563 11.2038728,0.301507538 C11.3971459,0.100502513 11.7085303,0 12.1272886,0 C12.5675217,0 12.9003809,0.190954774 13.1043913,0.572864322 L16.540357,6.7839196 L16.5618318,6.7839196 L16.5618318,1.05527638 C16.5618318,0.351758794 16.8732162,0 17.5067223,0 C18.1294911,0 18.4516129,0.351758794 18.4516129,1.05527638 L18.4408755,8.63316583 Z" id="Shape"></path>
                            <path d="M25.7553516,9.79188345 C25.5857771,9.92715921 25.3420137,10 25.0346598,10 L20.4137539,10 C20.0428096,10 19.7672509,9.89594173 19.5764796,9.69823101 C19.3857083,9.49011446 19.2903226,9.14672216 19.2903226,8.66805411 L19.2903226,1.33194589 C19.2903226,0.853277836 19.3857083,0.509885536 19.5764796,0.301768991 C19.7672509,0.0936524454 20.053408,0 20.4137539,0 L24.9392742,0 C25.2572264,0 25.4903914,0.0624349636 25.6599659,0.197710718 C25.8295404,0.332986472 25.9143277,0.572320499 25.9143277,0.915712799 C25.9143277,1.24869927 25.8295404,1.4880333 25.6599659,1.62330905 C25.4903914,1.75858481 25.246628,1.8314256 24.9392742,1.8314256 L21.2086345,1.8314256 L21.2086345,3.99583767 L24.4729442,3.99583767 C24.7591012,3.99583767 24.9710694,4.05827263 25.1406439,4.18314256 C25.29962,4.30801249 25.3844073,4.53694069 25.3844073,4.86992716 C25.3844073,5.1925078 25.29962,5.421436 25.1406439,5.54630593 C24.9816678,5.67117586 24.7591012,5.74401665 24.4729442,5.74401665 L21.2086345,5.74401665 L21.2086345,8.15816857 L25.0240614,8.15816857 C25.3420137,8.15816857 25.5751786,8.22060354 25.7447532,8.35587929 C25.9143277,8.49115505 25.999115,8.73048907 25.999115,9.07388137 C26.0097134,9.41727367 25.9249261,9.64620187 25.7553516,9.79188345 Z" id="Shape"></path>
                        </g>
                    </g>
                </g>
            </g>
        </g>
    </g>
</svg>