<?xml version="1.0" encoding="UTF-8" standalone="no"?>
<svg width="17px" height="14px" viewBox="0 0 17 14" version="1.1" xmlns="http://www.w3.org/2000/svg" xmlns:xlink="http://www.w3.org/1999/xlink">
    <!-- Generator: Sketch 49.1 (51147) - http://www.bohemiancoding.com/sketch -->
    <title>Group 10</title>
    <desc>Created with Sketch.</desc>
    <defs></defs>
    <g id="Symbols" stroke="none" stroke-width="1" fill="none" fill-rule="evenodd">
        <g id="button_icon_hatena_simple" transform="translate(-16.000000, -17.000000)" fill="#09263D" fill-rule="nonzero">
            <g id="Group">
                <g id="Group-10" transform="translate(16.000000, 17.000000)">
                    <polygon id="Shape" points="13 0 16 0 16 9 13 9"></polygon>
                    <path d="M10.158407,7.49905975 C9.5992962,6.87554708 8.82180929,6.52495955 7.82438846,6.44936941 C8.7116299,6.20814032 9.35590078,5.85519796 9.76347953,5.38366621 C10.1691228,4.91835121 10.3703631,4.28669082 10.3703631,3.49174631 C10.3703631,2.86244075 10.2324264,2.30566405 9.96538065,1.82466587 C9.69134838,1.34654058 9.2978843,0.963927323 8.78040941,0.677532539 C8.32789031,0.429144758 7.79002232,0.253945186 7.16302892,0.150615116 C6.53287271,0.0504876186 5.43013475,0 3.84768689,0 L0,0 L0,14 L3.96419191,14 C5.55678912,14 6.70517552,13.9443317 7.40741567,13.8379404 C8.10904214,13.7278755 8.69775127,13.5426443 9.17425114,13.2886992 C9.76357394,12.9784735 10.213119,12.5368481 10.5272766,11.9695217 C10.8434641,11.4003586 11,10.7440667 11,9.9935343 C10.9998584,8.95519426 10.7195477,8.12082984 10.158407,7.49905975 Z M3.55274225,3.10371694 L4.37403656,3.10371694 C5.32325981,3.10371694 5.96096902,3.21048506 6.29013819,3.42336196 C6.61477556,3.63727499 6.78051669,4.0064186 6.78051669,4.53234699 C6.78051669,5.0384006 6.60429577,5.39482811 6.25567762,5.60384309 C5.90243327,5.80890194 5.25882328,5.91289136 4.31649215,5.91289136 L3.55274225,5.91289136 L3.55274225,3.10371694 Z M6.81072869,11.1319547 C6.43704403,11.3609387 5.7931036,11.4734526 4.88962321,11.4734526 L3.55297829,11.4734526 L3.55297829,8.41457171 L4.94745086,8.41457171 C5.87524247,8.41457171 6.51672818,8.53113594 6.85784053,8.76374634 C7.20447601,8.99649803 7.37498498,9.40732218 7.37498498,9.99725494 C7.37484336,10.5252085 7.187765,10.9042895 6.81072869,11.1319547 Z" id="Shape"></path>
                    <path d="M15.0003,10 C13.8951395,10 13,10.8945835 13,11.999625 C13,13.1046664 13.8951895,14 15.0003,14 C16.1040104,14 17,13.1046664 17,11.999625 C17,10.8945835 16.1041104,10 15.0003,10 Z" id="Shape"></path>
                </g>
            </g>
        </g>
    </g>
</svg>