<?xml version="1.0" encoding="UTF-8" standalone="no"?>
<svg width="25px" height="22px" viewBox="0 0 25 22" version="1.1" xmlns="http://www.w3.org/2000/svg" xmlns:xlink="http://www.w3.org/1999/xlink">
    <!-- Generator: Sketch 49.1 (51147) - http://www.bohemiancoding.com/sketch -->
    <title>Combined Shape</title>
    <desc>Created with Sketch.</desc>
    <defs>
        <path d="M36.5961941,16.8076118 C37.2414843,20.2478275 38.0748176,22.4786235 39.0961941,23.5 C40.1175705,24.5213765 42.3483666,25.3547098 45.7885822,26 C42.3483666,26.6452902 40.1175705,27.4786235 39.0961941,28.5 C38.0748176,29.5213765 37.2414843,31.7521725 36.5961941,35.1923882 C35.9509039,31.7521725 35.1175705,29.5213765 34.0961941,28.5 C33.0748176,27.4786235 30.8440216,26.6452902 27.4038059,26 C30.8440216,25.3547098 33.0748176,24.5213765 34.0961941,23.5 C35.1175705,22.4786235 35.9509039,20.2478275 36.5961941,16.8076118 Z M26.5961941,14 C26.9890375,16.0943539 27.4963589,17.4524306 28.1181582,18.0742299 C28.7399576,18.6960293 30.0980342,19.2033507 32.1923882,19.5961941 C30.0980342,19.9890375 28.7399576,20.4963589 28.1181582,21.1181582 C27.4963589,21.7399576 26.9890375,23.0980342 26.5961941,25.1923882 C26.2033507,23.0980342 25.6960293,21.7399576 25.0742299,21.1181582 C24.4524306,20.4963589 23.0943539,19.9890375 21,19.5961941 C23.0943539,19.2033507 24.4524306,18.6960293 25.0742299,18.0742299 C25.6960293,17.4524306 26.2033507,16.0943539 26.5961941,14 Z" id="path-1"></path>
    </defs>
    <g id="overview" stroke="none" stroke-width="1" fill="none" fill-rule="evenodd">
        <g id="button" transform="translate(-320.000000, -964.000000)">
            <g id="Group-7-Copy" transform="translate(100.000000, 637.000000)">
                <g id="Group-6-Copy-28" transform="translate(199.000000, 292.000000)">
                    <g id="Group-3" transform="translate(0.000000, 21.000000)">
                        <g id="Combined-Shape">
                            <use fill="#FFFFFF" fill-rule="evenodd" xlink:href="#path-1"></use>
                            <path stroke="#09263D" stroke-width="1" d="M36.5961941,19.1508991 C36.0135632,21.4344285 35.3058915,22.9974094 34.4497475,23.8535534 C33.5936034,24.7096974 32.0306226,25.4173691 29.7470932,26 C32.0306226,26.5826309 33.5936034,27.2903026 34.4497475,28.1464466 C35.3058915,29.0025906 36.0135632,30.5655715 36.5961941,32.8491009 C37.178825,30.5655715 37.8864967,29.0025906 38.7426407,28.1464466 C39.5987847,27.2903026 41.1617656,26.5826309 43.445295,26 C41.1617656,25.4173691 39.5987847,24.7096974 38.7426407,23.8535534 C37.8864967,22.9974094 37.178825,21.4344285 36.5961941,19.1508991 Z M26.5961941,16.153577 C26.270747,17.2143375 25.8858174,17.9697493 25.4277833,18.4277833 C24.9697493,18.8858174 24.2143375,19.270747 23.153577,19.5961941 C24.2143375,19.9216412 24.9697493,20.3065708 25.4277833,20.7646048 C25.8858174,21.2226389 26.270747,21.9780506 26.5961941,23.0388112 C26.9216412,21.9780506 27.3065708,21.2226389 27.7646048,20.7646048 C28.2226389,20.3065708 28.9780506,19.9216412 30.0388112,19.5961941 C28.9780506,19.270747 28.2226389,18.8858174 27.7646048,18.4277833 C27.3065708,17.9697493 26.9216412,17.2143375 26.5961941,16.153577 Z"></path>
                        </g>
                    </g>
                </g>
            </g>
        </g>
    </g>
</svg>